<svg width="725" height="171" viewBox="0 0 725 171" fill="none" xmlns="http://www.w3.org/2000/svg">
<path d="M137.305 22.1406L76.3672 153.977H62.8906L1.95312 22.1406H33.7891L69.5312 108.664L105.469 22.1406H137.305ZM361.719 22.1406V128.586H427.148V153H334.57V22.1406H361.719ZM555.469 22.1406V46.5547H513.672V152.414H486.719V46.5547H444.922V22.1406H555.469ZM623.438 21.1641L684.375 153H652.539L642.578 128.586H590.82L580.859 153H549.023L609.961 21.1641H623.438ZM616.797 65.5L600.391 105.539H633.203L616.797 65.5Z" fill="#EB1D36"/>
<path d="M198.443 94.2364L166.301 124.901L192.163 145.222L232.064 152.98L267.163 141.158L288.961 112.34L254.5 67L224.305 117.512L198.443 94.2364Z" fill="#EB1D36"/>
<circle cx="228" cy="85" r="67" stroke="#EB1D36" stroke-width="16"/>
</svg>
